<?xml version="1.0" encoding="UTF-8" standalone="no"?>
<!DOCTYPE svg PUBLIC "-//W3C//DTD SVG 1.1//EN"
 "http://www.w3.org/Graphics/SVG/1.1/DTD/svg11.dtd">
<!-- Generated by graphviz version 2.50.0 (20211209.1537)
 -->
<!-- Title: g Pages: 1 -->
<svg width="909pt" height="734pt"
 viewBox="0.00 0.00 908.66 734.00" xmlns="http://www.w3.org/2000/svg" xmlns:xlink="http://www.w3.org/1999/xlink">
<g id="graph0" class="graph" transform="scale(1 1) rotate(0) translate(4 730)">
<title>g</title>
<g id="node1" class="node">
<title></title>
<g id="a_node1"><a xlink:href=".">
<ellipse fill="white" stroke="#666666" cx="5.5" cy="-492" rx="5.5" ry="5.5"/>
</a>
</g>
</g>
<!-- assets -->
<g id="node2" class="node">
<title>assets</title>
<g id="a_node2"><a xlink:href="assets" xlink:title="(Stylesheet and fonts)\l">
<polygon fill="white" stroke="#b3b3b3" points="284.1,-726 170.55,-726 170.55,-690 284.1,-690 284.1,-726"/>
<text text-anchor="start" x="178.68" y="-705" font-family="Helvetica,sans-Serif" font-size="10.00">(Stylesheet and fonts)</text>
</a>
</g>
</g>
<!-- &#45;&gt;assets -->
<g id="edge1" class="edge">
<title>&#45;&gt;assets</title>
<path fill="none" stroke="#999999" d="M9.05,-496.45C16.59,-509.39 39.83,-547.85 65,-575 105.31,-618.48 159.85,-660.61 194.06,-685.43"/>
<polygon fill="#999999" stroke="#999999" points="200.2,-689.85 192.14,-688.21 197.16,-687.66 194.12,-685.47 194.12,-685.47 194.12,-685.47 197.16,-687.66 196.09,-682.73 200.2,-689.85 200.2,-689.85"/>
<text text-anchor="middle" x="90.84" y="-625" font-family="Helvetica,sans-Serif" font-size="10.00">assets</text>
</g>
<!-- index.html -->
<g id="node3" class="node">
<title>index.html</title>
<g id="a_node3"><a xlink:href="index.html" xlink:title="Home page\l">
<polygon fill="white" stroke="#b3b3b3" points="261.02,-618 193.62,-618 193.62,-582 261.02,-582 261.02,-618"/>
<text text-anchor="start" x="201.47" y="-597" font-family="Helvetica,sans-Serif" font-size="10.00">Home page</text>
</a>
</g>
</g>
<!-- &#45;&gt;index.html -->
<g id="edge2" class="edge">
<title>&#45;&gt;index.html</title>
<path fill="none" stroke="#999999" d="M10.74,-494.22C20.35,-499.24 44.57,-511.82 65,-522 106.16,-542.5 153.58,-565.33 186.3,-580.97"/>
<polygon fill="#999999" stroke="#999999" points="193.46,-584.39 185.24,-584.2 190.08,-582.77 186.69,-581.16 186.69,-581.16 186.69,-581.16 190.08,-582.77 188.15,-578.11 193.46,-584.39 193.46,-584.39"/>
<text text-anchor="middle" x="90.84" y="-548" font-family="Helvetica,sans-Serif" font-size="10.00">index.html</text>
</g>
<!-- pagefind -->
<g id="node4" class="node">
<title>pagefind</title>
<g id="a_node4"><a xlink:href="pagefind" xlink:title="(Search indexes)\l">
<polygon fill="white" stroke="#b3b3b3" points="272.91,-510 181.73,-510 181.73,-474 272.91,-474 272.91,-510"/>
<text text-anchor="start" x="189.53" y="-489" font-family="Helvetica,sans-Serif" font-size="10.00">(Search indexes)</text>
</a>
</g>
</g>
<!-- &#45;&gt;pagefind -->
<g id="edge3" class="edge">
<title>&#45;&gt;pagefind</title>
<path fill="none" stroke="#999999" d="M11.09,-492C31.64,-492 116.66,-492 173.49,-492"/>
<polygon fill="#999999" stroke="#999999" points="181.31,-492 173.81,-495.38 177.56,-492 173.81,-492 173.81,-492 173.81,-492 177.56,-492 173.81,-488.63 181.31,-492 181.31,-492"/>
<text text-anchor="middle" x="90.84" y="-495" font-family="Helvetica,sans-Serif" font-size="10.00">pagefind</text>
</g>
<!-- search.html -->
<g id="node5" class="node">
<title>search.html</title>
<g id="a_node5"><a xlink:href="search.html" xlink:title="Search page\l">
<polygon fill="white" stroke="#b3b3b3" points="263.53,-402 191.11,-402 191.11,-366 263.53,-366 263.53,-402"/>
<text text-anchor="start" x="198.97" y="-381" font-family="Helvetica,sans-Serif" font-size="10.00">Search page</text>
</a>
</g>
</g>
<!-- &#45;&gt;search.html -->
<g id="edge4" class="edge">
<title>&#45;&gt;search.html</title>
<path fill="none" stroke="#999999" d="M10.74,-489.78C20.35,-484.76 44.57,-472.18 65,-462 105.13,-442.01 151.19,-419.81 183.8,-404.22"/>
<polygon fill="#999999" stroke="#999999" points="190.96,-400.8 185.65,-407.08 187.58,-402.42 184.19,-404.04 184.19,-404.04 184.19,-404.04 187.58,-402.42 182.74,-400.99 190.96,-400.8 190.96,-400.8"/>
<text text-anchor="middle" x="90.84" y="-465" font-family="Helvetica,sans-Serif" font-size="10.00">search.html</text>
</g>
<!-- stories -->
<g id="node6" class="node">
<title>stories</title>
<g id="a_node6"><a xlink:href="stories">
<ellipse fill="white" stroke="#666666" cx="227.32" cy="-288" rx="5.5" ry="5.5"/>
</a>
</g>
</g>
<!-- &#45;&gt;stories -->
<g id="edge5" class="edge">
<title>&#45;&gt;stories</title>
<path fill="none" stroke="#999999" d="M8.97,-487.43C16.3,-474.16 39.03,-434.8 65,-408 114.53,-356.9 187.49,-311.08 215.14,-294.54"/>
<polygon fill="#999999" stroke="#999999" points="221.94,-290.52 217.2,-297.25 218.71,-292.43 215.48,-294.34 215.48,-294.34 215.48,-294.34 218.71,-292.43 213.77,-291.44 221.94,-290.52 221.94,-290.52"/>
<text text-anchor="middle" x="90.84" y="-411" font-family="Helvetica,sans-Serif" font-size="10.00">stories</text>
</g>
<!-- stories/Birds -->
<g id="node7" class="node">
<title>stories/Birds</title>
<g id="a_node7"><a xlink:href="stories/Birds">
<ellipse fill="white" stroke="#666666" cx="523.34" cy="-546" rx="5.5" ry="5.5"/>
</a>
</g>
</g>
<!-- stories&#45;&gt;stories/Birds -->
<g id="edge6" class="edge">
<title>stories&#45;&gt;stories/Birds</title>
<path fill="none" stroke="#999999" d="M232.44,-290.46C242.18,-296.41 267.03,-312.36 283.96,-330 313.16,-360.42 309.36,-377.02 337.96,-408 383.67,-457.52 400.58,-464.7 455.32,-504 474.53,-517.79 498.22,-532.03 511.68,-539.88"/>
<polygon fill="#999999" stroke="#999999" points="518.3,-543.71 510.12,-542.88 515.06,-541.83 511.81,-539.95 511.81,-539.95 511.81,-539.95 515.06,-541.83 513.5,-537.03 518.3,-543.71 518.3,-543.71"/>
<text text-anchor="middle" x="369.64" y="-467" font-family="Helvetica,sans-Serif" font-size="10.00">Birds</text>
</g>
<!-- stories/Cosmos -->
<g id="node12" class="node">
<title>stories/Cosmos</title>
<g id="a_node12"><a xlink:href="stories/Cosmos" xlink:title="(Cosmological myths)\l">
<polygon fill="white" stroke="#b3b3b3" points="579.48,-468 467.21,-468 467.21,-432 579.48,-432 579.48,-468"/>
<text text-anchor="start" x="475.28" y="-447" font-family="Helvetica,sans-Serif" font-size="10.00">(Cosmological myths)</text>
</a>
</g>
</g>
<!-- stories&#45;&gt;stories/Cosmos -->
<g id="edge11" class="edge">
<title>stories&#45;&gt;stories/Cosmos</title>
<path fill="none" stroke="#999999" d="M232.48,-290.29C259.36,-305.1 409.77,-387.97 482.69,-428.15"/>
<polygon fill="#999999" stroke="#999999" points="489.5,-431.9 481.3,-431.24 486.22,-430.09 482.93,-428.28 482.93,-428.28 482.93,-428.28 486.22,-430.09 484.56,-425.33 489.5,-431.9 489.5,-431.9"/>
<text text-anchor="middle" x="369.64" y="-381" font-family="Helvetica,sans-Serif" font-size="10.00">Cosmos</text>
</g>
<!-- stories/Fourfooted -->
<g id="node13" class="node">
<title>stories/Fourfooted</title>
<g id="a_node13"><a xlink:href="stories/Fourfooted" xlink:title="(Four&#45;footed animal myths)\l">
<polygon fill="white" stroke="#b3b3b3" points="591.38,-360 455.3,-360 455.3,-324 591.38,-324 591.38,-360"/>
<text text-anchor="start" x="463.32" y="-339" font-family="Helvetica,sans-Serif" font-size="10.00">(Four&#45;footed animal myths)</text>
</a>
</g>
</g>
<!-- stories&#45;&gt;stories/Fourfooted -->
<g id="edge12" class="edge">
<title>stories&#45;&gt;stories/Fourfooted</title>
<path fill="none" stroke="#999999" d="M232.94,-288.85C257.04,-293.27 370.21,-314.06 447.68,-328.29"/>
<polygon fill="#999999" stroke="#999999" points="455.06,-329.64 447.07,-331.61 451.37,-328.96 447.68,-328.29 447.68,-328.29 447.68,-328.29 451.37,-328.96 448.29,-324.97 455.06,-329.64 455.06,-329.64"/>
<text text-anchor="middle" x="369.64" y="-321" font-family="Helvetica,sans-Serif" font-size="10.00">Fourfooted</text>
</g>
<!-- stories/Miscellaneous -->
<g id="node14" class="node">
<title>stories/Miscellaneous</title>
<g id="a_node14"><a xlink:href="stories/Miscellaneous" xlink:title="(Miscellaneous myths)\l">
<polygon fill="white" stroke="#b3b3b3" points="581.32,-252 465.37,-252 465.37,-216 581.32,-216 581.32,-252"/>
<text text-anchor="start" x="473.61" y="-231" font-family="Helvetica,sans-Serif" font-size="10.00">(Miscellaneous myths)</text>
</a>
</g>
</g>
<!-- stories&#45;&gt;stories/Miscellaneous -->
<g id="edge13" class="edge">
<title>stories&#45;&gt;stories/Miscellaneous</title>
<path fill="none" stroke="#999999" d="M232.94,-287.15C258.09,-282.53 380.2,-260.11 457.55,-245.9"/>
<polygon fill="#999999" stroke="#999999" points="465.36,-244.47 458.59,-249.14 461.67,-245.14 457.98,-245.82 457.98,-245.82 457.98,-245.82 461.67,-245.14 457.37,-242.5 465.36,-244.47 465.36,-244.47"/>
<text text-anchor="middle" x="369.64" y="-270" font-family="Helvetica,sans-Serif" font-size="10.00">Miscellaneous</text>
</g>
<!-- stories/Snakes -->
<g id="node15" class="node">
<title>stories/Snakes</title>
<g id="a_node15"><a xlink:href="stories/Snakes" xlink:title="(Snake myths)\l">
<polygon fill="white" stroke="#b3b3b3" points="563.81,-144 482.88,-144 482.88,-108 563.81,-108 563.81,-144"/>
<text text-anchor="start" x="491.11" y="-123" font-family="Helvetica,sans-Serif" font-size="10.00">(Snake myths)</text>
</a>
</g>
</g>
<!-- stories&#45;&gt;stories/Snakes -->
<g id="edge14" class="edge">
<title>stories&#45;&gt;stories/Snakes</title>
<path fill="none" stroke="#999999" d="M232.5,-285.66C247.04,-277.53 296.77,-249.74 337.96,-227 387.59,-199.6 444.88,-168.27 482.26,-147.86"/>
<polygon fill="#999999" stroke="#999999" points="489,-144.18 484.03,-150.74 485.71,-145.98 482.41,-147.77 482.41,-147.77 482.41,-147.77 485.71,-145.98 480.8,-144.81 489,-144.18 489,-144.18"/>
<text text-anchor="middle" x="369.64" y="-230" font-family="Helvetica,sans-Serif" font-size="10.00">Snakes</text>
</g>
<!-- stories/Wonder -->
<g id="node16" class="node">
<title>stories/Wonder</title>
<g id="a_node16"><a xlink:href="stories/Wonder" xlink:title="(Wonder tales)\l">
<polygon fill="white" stroke="#b3b3b3" points="563.92,-36 482.77,-36 482.77,0 563.92,0 563.92,-36"/>
<text text-anchor="start" x="490.56" y="-15" font-family="Helvetica,sans-Serif" font-size="10.00">(Wonder tales)</text>
</a>
</g>
</g>
<!-- stories&#45;&gt;stories/Wonder -->
<g id="edge15" class="edge">
<title>stories&#45;&gt;stories/Wonder</title>
<path fill="none" stroke="#999999" d="M231.48,-283.87C244.03,-267.6 291.87,-206.69 337.96,-163 387.84,-115.73 452.07,-67.78 490.06,-40.58"/>
<polygon fill="#999999" stroke="#999999" points="496.39,-36.07 492.24,-43.17 493.33,-38.25 490.28,-40.43 490.28,-40.43 490.28,-40.43 493.33,-38.25 488.32,-37.68 496.39,-36.07 496.39,-36.07"/>
<text text-anchor="middle" x="369.64" y="-166" font-family="Helvetica,sans-Serif" font-size="10.00">Wonder</text>
</g>
<!-- stories/Birds/The Eagle’s Revenge.html -->
<g id="node8" class="node">
<title>stories/Birds/The Eagle’s Revenge.html</title>
<g id="a_node8"><a xlink:href="stories/Birds/The Eagle’s Revenge.html" xlink:title="(story)\l">
<polygon fill="white" stroke="#b3b3b3" points="900.66,-726 846.66,-726 846.66,-690 900.66,-690 900.66,-726"/>
<text text-anchor="start" x="859.5" y="-705" font-family="Helvetica,sans-Serif" font-size="10.00">(story)</text>
</a>
</g>
</g>
<!-- stories/Birds&#45;&gt;stories/Birds/The Eagle’s Revenge.html -->
<g id="edge7" class="edge">
<title>stories/Birds&#45;&gt;stories/Birds/The Eagle’s Revenge.html</title>
<path fill="none" stroke="#999999" d="M528.41,-548.63C543.49,-558.34 597.82,-592.77 645.36,-616 712.58,-648.84 794.61,-679.94 839.45,-696.22"/>
<polygon fill="#999999" stroke="#999999" points="846.59,-698.8 838.39,-699.42 843.06,-697.52 839.53,-696.25 839.53,-696.25 839.53,-696.25 843.06,-697.52 840.68,-693.08 846.59,-698.8 846.59,-698.8"/>
<text text-anchor="middle" x="719.01" y="-680" font-family="Helvetica,sans-Serif" font-size="10.00">The Eagle’s Revenge.html</text>
</g>
<!-- stories/Birds/The Huhu Gets Married.html -->
<g id="node9" class="node">
<title>stories/Birds/The Huhu Gets Married.html</title>
<g id="a_node9"><a xlink:href="stories/Birds/The Huhu Gets Married.html" xlink:title="(story)\l">
<polygon fill="white" stroke="#b3b3b3" points="900.66,-618 846.66,-618 846.66,-582 900.66,-582 900.66,-618"/>
<text text-anchor="start" x="859.5" y="-597" font-family="Helvetica,sans-Serif" font-size="10.00">(story)</text>
</a>
</g>
</g>
<!-- stories/Birds&#45;&gt;stories/Birds/The Huhu Gets Married.html -->
<g id="edge8" class="edge">
<title>stories/Birds&#45;&gt;stories/Birds/The Huhu Gets Married.html</title>
<path fill="none" stroke="#999999" d="M529,-546.72C561.78,-551.8 758.72,-582.34 838.82,-594.75"/>
<polygon fill="#999999" stroke="#999999" points="846.65,-595.97 838.72,-598.15 842.94,-595.39 839.24,-594.82 839.24,-594.82 839.24,-594.82 842.94,-595.39 839.75,-591.48 846.65,-595.97 846.65,-595.97"/>
<text text-anchor="middle" x="719.01" y="-589" font-family="Helvetica,sans-Serif" font-size="10.00">The Huhu Gets Married.html</text>
</g>
<!-- stories/Birds/The Hunter and the Buzzard.html -->
<g id="node10" class="node">
<title>stories/Birds/The Hunter and the Buzzard.html</title>
<g id="a_node10"><a xlink:href="stories/Birds/The Hunter and the Buzzard.html" xlink:title="(story)\l">
<polygon fill="white" stroke="#b3b3b3" points="900.66,-510 846.66,-510 846.66,-474 900.66,-474 900.66,-510"/>
<text text-anchor="start" x="859.5" y="-489" font-family="Helvetica,sans-Serif" font-size="10.00">(story)</text>
</a>
</g>
</g>
<!-- stories/Birds&#45;&gt;stories/Birds/The Hunter and the Buzzard.html -->
<g id="edge9" class="edge">
<title>stories/Birds&#45;&gt;stories/Birds/The Hunter and the Buzzard.html</title>
<path fill="none" stroke="#999999" d="M529,-545.28C561.78,-540.2 758.72,-509.66 838.82,-497.25"/>
<polygon fill="#999999" stroke="#999999" points="846.65,-496.03 839.75,-500.52 842.94,-496.61 839.24,-497.18 839.24,-497.18 839.24,-497.18 842.94,-496.61 838.72,-493.85 846.65,-496.03 846.65,-496.03"/>
<text text-anchor="middle" x="719.01" y="-529" font-family="Helvetica,sans-Serif" font-size="10.00">The Hunter and the Buzzard.html</text>
</g>
<!-- stories/Birds/The Owl Gets Married.html -->
<g id="node11" class="node">
<title>stories/Birds/The Owl Gets Married.html</title>
<g id="a_node11"><a xlink:href="stories/Birds/The Owl Gets Married.html" xlink:title="(story)\l">
<polygon fill="white" stroke="#b3b3b3" points="900.66,-402 846.66,-402 846.66,-366 900.66,-366 900.66,-402"/>
<text text-anchor="start" x="859.5" y="-381" font-family="Helvetica,sans-Serif" font-size="10.00">(story)</text>
</a>
</g>
</g>
<!-- stories/Birds&#45;&gt;stories/Birds/The Owl Gets Married.html -->
<g id="edge10" class="edge">
<title>stories/Birds&#45;&gt;stories/Birds/The Owl Gets Married.html</title>
<path fill="none" stroke="#999999" d="M528.4,-543.32C543.45,-533.42 597.68,-498.37 645.36,-475 712.43,-442.13 794.52,-411.51 839.41,-395.54"/>
<polygon fill="#999999" stroke="#999999" points="846.55,-393.01 840.61,-398.69 843.02,-394.26 839.48,-395.51 839.48,-395.51 839.48,-395.51 843.02,-394.26 838.36,-392.33 846.55,-393.01 846.55,-393.01"/>
<text text-anchor="middle" x="719.01" y="-478" font-family="Helvetica,sans-Serif" font-size="10.00">The Owl Gets Married.html</text>
</g>
</g>
</svg>
