<?xml version="1.0" encoding="UTF-8" standalone="no"?>
<!DOCTYPE svg PUBLIC "-//W3C//DTD SVG 1.1//EN"
 "http://www.w3.org/Graphics/SVG/1.1/DTD/svg11.dtd">
<!-- Generated by graphviz version 2.50.0 (20211209.1537)
 -->
<!-- Title: g Pages: 1 -->
<svg width="911pt" height="734pt"
 viewBox="0.00 0.00 911.44 734.00" xmlns="http://www.w3.org/2000/svg" xmlns:xlink="http://www.w3.org/1999/xlink">
<g id="graph0" class="graph" transform="scale(1 1) rotate(0) translate(4 730)">
<title>g</title>
<g id="node1" class="node">
<title></title>
<g id="a_node1"><a xlink:href=".">
<ellipse fill="white" stroke="#666666" cx="5.5" cy="-492" rx="5.5" ry="5.5"/>
</a>
</g>
</g>
<!-- assets/ -->
<g id="node2" class="node">
<title>assets/</title>
<g id="a_node2"><a xlink:href="assets/" xlink:title="(Stylesheet and fonts)\l">
<polygon fill="white" stroke="#b3b3b3" points="284.1,-726 170.55,-726 170.55,-690 284.1,-690 284.1,-726"/>
<text text-anchor="start" x="178.68" y="-705" font-family="Helvetica,sans-Serif" font-size="10.00">(Stylesheet and fonts)</text>
</a>
</g>
</g>
<!-- &#45;&gt;assets/ -->
<g id="edge1" class="edge">
<title>&#45;&gt;assets/</title>
<path fill="none" stroke="#999999" d="M9.05,-496.45C16.59,-509.39 39.83,-547.85 65,-575 105.31,-618.48 159.85,-660.61 194.06,-685.43"/>
<polygon fill="#999999" stroke="#999999" points="200.2,-689.85 192.14,-688.21 197.16,-687.66 194.12,-685.47 194.12,-685.47 194.12,-685.47 197.16,-687.66 196.09,-682.73 200.2,-689.85 200.2,-689.85"/>
<text text-anchor="middle" x="90.84" y="-625" font-family="Helvetica,sans-Serif" font-size="10.00">assets/</text>
</g>
<!-- index.html -->
<g id="node3" class="node">
<title>index.html</title>
<g id="a_node3"><a xlink:href="index.html" xlink:title="Home page\l">
<polygon fill="white" stroke="#b3b3b3" points="261.02,-618 193.62,-618 193.62,-582 261.02,-582 261.02,-618"/>
<text text-anchor="start" x="201.47" y="-597" font-family="Helvetica,sans-Serif" font-size="10.00">Home page</text>
</a>
</g>
</g>
<!-- &#45;&gt;index.html -->
<g id="edge2" class="edge">
<title>&#45;&gt;index.html</title>
<path fill="none" stroke="#999999" d="M10.74,-494.22C20.35,-499.24 44.57,-511.82 65,-522 106.16,-542.5 153.58,-565.33 186.3,-580.97"/>
<polygon fill="#999999" stroke="#999999" points="193.46,-584.39 185.24,-584.2 190.08,-582.77 186.69,-581.16 186.69,-581.16 186.69,-581.16 190.08,-582.77 188.15,-578.11 193.46,-584.39 193.46,-584.39"/>
<text text-anchor="middle" x="90.84" y="-548" font-family="Helvetica,sans-Serif" font-size="10.00">index.html</text>
</g>
<!-- pagefind/ -->
<g id="node4" class="node">
<title>pagefind/</title>
<g id="a_node4"><a xlink:href="pagefind/" xlink:title="(Search indexes)\l">
<polygon fill="white" stroke="#b3b3b3" points="272.91,-510 181.73,-510 181.73,-474 272.91,-474 272.91,-510"/>
<text text-anchor="start" x="189.53" y="-489" font-family="Helvetica,sans-Serif" font-size="10.00">(Search indexes)</text>
</a>
</g>
</g>
<!-- &#45;&gt;pagefind/ -->
<g id="edge3" class="edge">
<title>&#45;&gt;pagefind/</title>
<path fill="none" stroke="#999999" d="M11.09,-492C31.64,-492 116.66,-492 173.49,-492"/>
<polygon fill="#999999" stroke="#999999" points="181.31,-492 173.81,-495.38 177.56,-492 173.81,-492 173.81,-492 173.81,-492 177.56,-492 173.81,-488.63 181.31,-492 181.31,-492"/>
<text text-anchor="middle" x="90.84" y="-495" font-family="Helvetica,sans-Serif" font-size="10.00">pagefind/</text>
</g>
<!-- search.html -->
<g id="node5" class="node">
<title>search.html</title>
<g id="a_node5"><a xlink:href="search.html" xlink:title="Search page\l">
<polygon fill="white" stroke="#b3b3b3" points="263.53,-402 191.11,-402 191.11,-366 263.53,-366 263.53,-402"/>
<text text-anchor="start" x="198.97" y="-381" font-family="Helvetica,sans-Serif" font-size="10.00">Search page</text>
</a>
</g>
</g>
<!-- &#45;&gt;search.html -->
<g id="edge4" class="edge">
<title>&#45;&gt;search.html</title>
<path fill="none" stroke="#999999" d="M10.74,-489.78C20.35,-484.76 44.57,-472.18 65,-462 105.13,-442.01 151.19,-419.81 183.8,-404.22"/>
<polygon fill="#999999" stroke="#999999" points="190.96,-400.8 185.65,-407.08 187.58,-402.42 184.19,-404.04 184.19,-404.04 184.19,-404.04 187.58,-402.42 182.74,-400.99 190.96,-400.8 190.96,-400.8"/>
<text text-anchor="middle" x="90.84" y="-465" font-family="Helvetica,sans-Serif" font-size="10.00">search.html</text>
</g>
<!-- stories/ -->
<g id="node6" class="node">
<title>stories/</title>
<g id="a_node6"><a xlink:href="stories/">
<ellipse fill="white" stroke="#666666" cx="227.32" cy="-288" rx="5.5" ry="5.5"/>
</a>
</g>
</g>
<!-- &#45;&gt;stories/ -->
<g id="edge5" class="edge">
<title>&#45;&gt;stories/</title>
<path fill="none" stroke="#999999" d="M8.97,-487.43C16.3,-474.16 39.03,-434.8 65,-408 114.53,-356.9 187.49,-311.08 215.14,-294.54"/>
<polygon fill="#999999" stroke="#999999" points="221.94,-290.52 217.2,-297.25 218.71,-292.43 215.48,-294.34 215.48,-294.34 215.48,-294.34 218.71,-292.43 213.77,-291.44 221.94,-290.52 221.94,-290.52"/>
<text text-anchor="middle" x="90.84" y="-411" font-family="Helvetica,sans-Serif" font-size="10.00">stories/</text>
</g>
<!-- stories/Birds/ -->
<g id="node7" class="node">
<title>stories/Birds/</title>
<g id="a_node7"><a xlink:href="stories/Birds/">
<ellipse fill="white" stroke="#666666" cx="526.12" cy="-546" rx="5.5" ry="5.5"/>
</a>
</g>
</g>
<!-- stories/&#45;&gt;stories/Birds/ -->
<g id="edge6" class="edge">
<title>stories/&#45;&gt;stories/Birds/</title>
<path fill="none" stroke="#999999" d="M232.47,-290.44C242.26,-296.33 267.24,-312.17 283.96,-330 313.81,-361.83 308.22,-380.07 337.96,-412 383.79,-461.22 402.85,-465.66 458.1,-504 477.53,-517.48 501.15,-531.83 514.52,-539.78"/>
<polygon fill="#999999" stroke="#999999" points="521.11,-543.66 512.94,-542.76 517.88,-541.76 514.65,-539.85 514.65,-539.85 514.65,-539.85 517.88,-541.76 516.37,-536.95 521.11,-543.66 521.11,-543.66"/>
<text text-anchor="middle" x="371.03" y="-470" font-family="Helvetica,sans-Serif" font-size="10.00">Birds/</text>
</g>
<!-- stories/Cosmos/ -->
<g id="node12" class="node">
<title>stories/Cosmos/</title>
<g id="a_node12"><a xlink:href="stories/Cosmos/" xlink:title="(Cosmological myths)\l">
<polygon fill="white" stroke="#b3b3b3" points="582.25,-468 469.99,-468 469.99,-432 582.25,-432 582.25,-468"/>
<text text-anchor="start" x="478.06" y="-447" font-family="Helvetica,sans-Serif" font-size="10.00">(Cosmological myths)</text>
</a>
</g>
</g>
<!-- stories/&#45;&gt;stories/Cosmos/ -->
<g id="edge11" class="edge">
<title>stories/&#45;&gt;stories/Cosmos/</title>
<path fill="none" stroke="#999999" d="M232.49,-290.35C247.01,-298.51 296.7,-326.39 337.96,-349 388.26,-376.56 446.42,-407.86 484.39,-428.21"/>
<polygon fill="#999999" stroke="#999999" points="491.24,-431.88 483.03,-431.32 487.93,-430.11 484.63,-428.34 484.63,-428.34 484.63,-428.34 487.93,-430.11 486.22,-425.37 491.24,-431.88 491.24,-431.88"/>
<text text-anchor="middle" x="371.03" y="-385" font-family="Helvetica,sans-Serif" font-size="10.00">Cosmos/</text>
</g>
<!-- stories/Fourfooted/ -->
<g id="node13" class="node">
<title>stories/Fourfooted/</title>
<g id="a_node13"><a xlink:href="stories/Fourfooted/" xlink:title="(Four&#45;footed animal myths)\l">
<polygon fill="white" stroke="#b3b3b3" points="594.16,-360 458.08,-360 458.08,-324 594.16,-324 594.16,-360"/>
<text text-anchor="start" x="466.1" y="-339" font-family="Helvetica,sans-Serif" font-size="10.00">(Four&#45;footed animal myths)</text>
</a>
</g>
</g>
<!-- stories/&#45;&gt;stories/Fourfooted/ -->
<g id="edge12" class="edge">
<title>stories/&#45;&gt;stories/Fourfooted/</title>
<path fill="none" stroke="#999999" d="M232.98,-288.85C257.38,-293.29 372.22,-314.18 450.44,-328.41"/>
<polygon fill="#999999" stroke="#999999" points="457.89,-329.77 449.91,-331.75 454.2,-329.1 450.51,-328.42 450.51,-328.42 450.51,-328.42 454.2,-329.1 451.11,-325.1 457.89,-329.77 457.89,-329.77"/>
<text text-anchor="middle" x="371.03" y="-322" font-family="Helvetica,sans-Serif" font-size="10.00">Fourfooted/</text>
</g>
<!-- stories/Miscellaneous/ -->
<g id="node14" class="node">
<title>stories/Miscellaneous/</title>
<g id="a_node14"><a xlink:href="stories/Miscellaneous/" xlink:title="(Miscellaneous myths)\l">
<polygon fill="white" stroke="#b3b3b3" points="584.1,-252 468.15,-252 468.15,-216 584.1,-216 584.1,-252"/>
<text text-anchor="start" x="476.39" y="-231" font-family="Helvetica,sans-Serif" font-size="10.00">(Miscellaneous myths)</text>
</a>
</g>
</g>
<!-- stories/&#45;&gt;stories/Miscellaneous/ -->
<g id="edge13" class="edge">
<title>stories/&#45;&gt;stories/Miscellaneous/</title>
<path fill="none" stroke="#999999" d="M232.98,-287.15C258.49,-282.51 382.83,-259.89 460.85,-245.69"/>
<polygon fill="#999999" stroke="#999999" points="468.25,-244.35 461.48,-249.01 464.56,-245.02 460.87,-245.69 460.87,-245.69 460.87,-245.69 464.56,-245.02 460.27,-242.37 468.25,-244.35 468.25,-244.35"/>
<text text-anchor="middle" x="371.03" y="-270" font-family="Helvetica,sans-Serif" font-size="10.00">Miscellaneous/</text>
</g>
<!-- stories/Snakes/ -->
<g id="node15" class="node">
<title>stories/Snakes/</title>
<g id="a_node15"><a xlink:href="stories/Snakes/" xlink:title="(Snake myths)\l">
<polygon fill="white" stroke="#b3b3b3" points="566.59,-144 485.66,-144 485.66,-108 566.59,-108 566.59,-144"/>
<text text-anchor="start" x="493.89" y="-123" font-family="Helvetica,sans-Serif" font-size="10.00">(Snake myths)</text>
</a>
</g>
</g>
<!-- stories/&#45;&gt;stories/Snakes/ -->
<g id="edge14" class="edge">
<title>stories/&#45;&gt;stories/Snakes/</title>
<path fill="none" stroke="#999999" d="M232.48,-285.6C246.97,-277.25 296.57,-248.76 337.96,-226 387.95,-198.51 445.95,-167.69 483.98,-147.62"/>
<polygon fill="#999999" stroke="#999999" points="490.84,-144 485.78,-150.49 487.52,-145.75 484.2,-147.5 484.2,-147.5 484.2,-147.5 487.52,-145.75 482.63,-144.52 490.84,-144 490.84,-144"/>
<text text-anchor="middle" x="371.03" y="-229" font-family="Helvetica,sans-Serif" font-size="10.00">Snakes/</text>
</g>
<!-- stories/Wonder/ -->
<g id="node16" class="node">
<title>stories/Wonder/</title>
<g id="a_node16"><a xlink:href="stories/Wonder/" xlink:title="(Wonder tales)\l">
<polygon fill="white" stroke="#b3b3b3" points="566.7,-36 485.54,-36 485.54,0 566.7,0 566.7,-36"/>
<text text-anchor="start" x="493.33" y="-15" font-family="Helvetica,sans-Serif" font-size="10.00">(Wonder tales)</text>
</a>
</g>
</g>
<!-- stories/&#45;&gt;stories/Wonder/ -->
<g id="edge15" class="edge">
<title>stories/&#45;&gt;stories/Wonder/</title>
<path fill="none" stroke="#999999" d="M231.46,-283.82C243.93,-267.35 291.51,-205.73 337.96,-162 388.19,-114.71 453.25,-67.38 491.94,-40.48"/>
<polygon fill="#999999" stroke="#999999" points="498.38,-36.03 494.14,-43.07 495.3,-38.16 492.22,-40.29 492.22,-40.29 492.22,-40.29 495.3,-38.16 490.29,-37.52 498.38,-36.03 498.38,-36.03"/>
<text text-anchor="middle" x="371.03" y="-165" font-family="Helvetica,sans-Serif" font-size="10.00">Wonder/</text>
</g>
<!-- stories/Birds/The Eagle’s Revenge.html -->
<g id="node8" class="node">
<title>stories/Birds/The Eagle’s Revenge.html</title>
<g id="a_node8"><a xlink:href="stories/Birds/The Eagle’s Revenge.html" xlink:title="(story)\l">
<polygon fill="white" stroke="#b3b3b3" points="903.44,-726 849.44,-726 849.44,-690 903.44,-690 903.44,-726"/>
<text text-anchor="start" x="862.28" y="-705" font-family="Helvetica,sans-Serif" font-size="10.00">(story)</text>
</a>
</g>
</g>
<!-- stories/Birds/&#45;&gt;stories/Birds/The Eagle’s Revenge.html -->
<g id="edge7" class="edge">
<title>stories/Birds/&#45;&gt;stories/Birds/The Eagle’s Revenge.html</title>
<path fill="none" stroke="#999999" d="M531.19,-548.63C546.27,-558.34 600.6,-592.77 648.14,-616 715.35,-648.84 797.39,-679.94 842.23,-696.22"/>
<polygon fill="#999999" stroke="#999999" points="849.36,-698.8 841.16,-699.42 845.84,-697.52 842.31,-696.25 842.31,-696.25 842.31,-696.25 845.84,-697.52 843.46,-693.08 849.36,-698.8 849.36,-698.8"/>
<text text-anchor="middle" x="721.79" y="-680" font-family="Helvetica,sans-Serif" font-size="10.00">The Eagle’s Revenge.html</text>
</g>
<!-- stories/Birds/The Huhu Gets Married.html -->
<g id="node9" class="node">
<title>stories/Birds/The Huhu Gets Married.html</title>
<g id="a_node9"><a xlink:href="stories/Birds/The Huhu Gets Married.html" xlink:title="(story)\l">
<polygon fill="white" stroke="#b3b3b3" points="903.44,-618 849.44,-618 849.44,-582 903.44,-582 903.44,-618"/>
<text text-anchor="start" x="862.28" y="-597" font-family="Helvetica,sans-Serif" font-size="10.00">(story)</text>
</a>
</g>
</g>
<!-- stories/Birds/&#45;&gt;stories/Birds/The Huhu Gets Married.html -->
<g id="edge8" class="edge">
<title>stories/Birds/&#45;&gt;stories/Birds/The Huhu Gets Married.html</title>
<path fill="none" stroke="#999999" d="M531.78,-546.72C564.56,-551.8 761.5,-582.34 841.6,-594.75"/>
<polygon fill="#999999" stroke="#999999" points="849.43,-595.97 841.5,-598.15 845.72,-595.39 842.01,-594.82 842.01,-594.82 842.01,-594.82 845.72,-595.39 842.53,-591.48 849.43,-595.97 849.43,-595.97"/>
<text text-anchor="middle" x="721.79" y="-589" font-family="Helvetica,sans-Serif" font-size="10.00">The Huhu Gets Married.html</text>
</g>
<!-- stories/Birds/The Hunter and the Buzzard.html -->
<g id="node10" class="node">
<title>stories/Birds/The Hunter and the Buzzard.html</title>
<g id="a_node10"><a xlink:href="stories/Birds/The Hunter and the Buzzard.html" xlink:title="(story)\l">
<polygon fill="white" stroke="#b3b3b3" points="903.44,-510 849.44,-510 849.44,-474 903.44,-474 903.44,-510"/>
<text text-anchor="start" x="862.28" y="-489" font-family="Helvetica,sans-Serif" font-size="10.00">(story)</text>
</a>
</g>
</g>
<!-- stories/Birds/&#45;&gt;stories/Birds/The Hunter and the Buzzard.html -->
<g id="edge9" class="edge">
<title>stories/Birds/&#45;&gt;stories/Birds/The Hunter and the Buzzard.html</title>
<path fill="none" stroke="#999999" d="M531.78,-545.28C564.56,-540.2 761.5,-509.66 841.6,-497.25"/>
<polygon fill="#999999" stroke="#999999" points="849.43,-496.03 842.53,-500.52 845.72,-496.61 842.01,-497.18 842.01,-497.18 842.01,-497.18 845.72,-496.61 841.5,-493.85 849.43,-496.03 849.43,-496.03"/>
<text text-anchor="middle" x="721.79" y="-529" font-family="Helvetica,sans-Serif" font-size="10.00">The Hunter and the Buzzard.html</text>
</g>
<!-- stories/Birds/The Owl Gets Married.html -->
<g id="node11" class="node">
<title>stories/Birds/The Owl Gets Married.html</title>
<g id="a_node11"><a xlink:href="stories/Birds/The Owl Gets Married.html" xlink:title="(story)\l">
<polygon fill="white" stroke="#b3b3b3" points="903.44,-402 849.44,-402 849.44,-366 903.44,-366 903.44,-402"/>
<text text-anchor="start" x="862.28" y="-381" font-family="Helvetica,sans-Serif" font-size="10.00">(story)</text>
</a>
</g>
</g>
<!-- stories/Birds/&#45;&gt;stories/Birds/The Owl Gets Married.html -->
<g id="edge10" class="edge">
<title>stories/Birds/&#45;&gt;stories/Birds/The Owl Gets Married.html</title>
<path fill="none" stroke="#999999" d="M531.18,-543.32C546.23,-533.42 600.46,-498.37 648.14,-475 715.21,-442.13 797.3,-411.51 842.19,-395.54"/>
<polygon fill="#999999" stroke="#999999" points="849.33,-393.01 843.39,-398.69 845.8,-394.26 842.26,-395.51 842.26,-395.51 842.26,-395.51 845.8,-394.26 841.13,-392.33 849.33,-393.01 849.33,-393.01"/>
<text text-anchor="middle" x="721.79" y="-478" font-family="Helvetica,sans-Serif" font-size="10.00">The Owl Gets Married.html</text>
</g>
</g>
</svg>
