<?xml version="1.0" encoding="UTF-8" standalone="no"?>
<!DOCTYPE svg PUBLIC "-//W3C//DTD SVG 1.1//EN"
 "http://www.w3.org/Graphics/SVG/1.1/DTD/svg11.dtd">
<!-- Generated by graphviz version 2.50.0 (20211209.1537)
 -->
<!-- Title: g Pages: 1 -->
<svg width="586pt" height="734pt"
 viewBox="0.00 0.00 586.04 734.00" xmlns="http://www.w3.org/2000/svg" xmlns:xlink="http://www.w3.org/1999/xlink">
<g id="graph0" class="graph" transform="scale(1 1) rotate(0) translate(4 730)">
<title>g</title>
<g id="node1" class="node">
<title></title>
<g id="a_node1"><a xlink:href=".">
<ellipse fill="white" stroke="#666666" cx="5.5" cy="-492" rx="5.5" ry="5.5"/>
</a>
</g>
</g>
<!-- assets -->
<g id="node2" class="node">
<title>assets</title>
<g id="a_node2"><a xlink:href="assets" xlink:title="Stylesheet and fonts\l">
<polygon fill="white" stroke="#b3b3b3" points="277.11,-726 170.88,-726 170.88,-690 277.11,-690 277.11,-726"/>
<text text-anchor="start" x="178.68" y="-705" font-family="Helvetica,sans-Serif" font-size="10.00">Stylesheet and fonts</text>
</a>
</g>
</g>
<!-- &#45;&gt;assets -->
<g id="edge1" class="edge">
<title>&#45;&gt;assets</title>
<path fill="none" stroke="#999999" d="M9.06,-496.43C16.64,-509.35 39.97,-547.72 65,-575 104.55,-618.09 157.84,-660.27 191.31,-685.2"/>
<polygon fill="#999999" stroke="#999999" points="197.73,-689.95 189.69,-688.2 194.72,-687.72 191.7,-685.49 191.7,-685.49 191.7,-685.49 194.72,-687.72 193.71,-682.78 197.73,-689.95 197.73,-689.95"/>
<text text-anchor="middle" x="90.84" y="-625" font-family="Helvetica,sans-Serif" font-size="10.00">assets</text>
</g>
<!-- index.html -->
<g id="node3" class="node">
<title>index.html</title>
<g id="a_node3"><a xlink:href="index.html" xlink:title="Home page\l">
<polygon fill="white" stroke="#b3b3b3" points="257.69,-618 190.29,-618 190.29,-582 257.69,-582 257.69,-618"/>
<text text-anchor="start" x="198.14" y="-597" font-family="Helvetica,sans-Serif" font-size="10.00">Home page</text>
</a>
</g>
</g>
<!-- &#45;&gt;index.html -->
<g id="edge2" class="edge">
<title>&#45;&gt;index.html</title>
<path fill="none" stroke="#999999" d="M10.75,-494.21C20.37,-499.2 44.61,-511.74 65,-522 105.14,-542.2 151.23,-564.9 183.23,-580.58"/>
<polygon fill="#999999" stroke="#999999" points="190.24,-584.01 182.02,-583.74 186.87,-582.36 183.5,-580.71 183.5,-580.71 183.5,-580.71 186.87,-582.36 184.99,-577.68 190.24,-584.01 190.24,-584.01"/>
<text text-anchor="middle" x="90.84" y="-548" font-family="Helvetica,sans-Serif" font-size="10.00">index.html</text>
</g>
<!-- pagefind -->
<g id="node4" class="node">
<title>pagefind</title>
<g id="a_node4"><a xlink:href="pagefind" xlink:title="Search indexes\l">
<polygon fill="white" stroke="#b3b3b3" points="266.42,-510 181.56,-510 181.56,-474 266.42,-474 266.42,-510"/>
<text text-anchor="start" x="189.53" y="-489" font-family="Helvetica,sans-Serif" font-size="10.00">Search indexes</text>
</a>
</g>
</g>
<!-- &#45;&gt;pagefind -->
<g id="edge3" class="edge">
<title>&#45;&gt;pagefind</title>
<path fill="none" stroke="#999999" d="M11.02,-492C31.61,-492 117.88,-492 173.82,-492"/>
<polygon fill="#999999" stroke="#999999" points="181.5,-492 174,-495.38 177.75,-492 174,-492 174,-492 174,-492 177.75,-492 174,-488.63 181.5,-492 181.5,-492"/>
<text text-anchor="middle" x="90.84" y="-495" font-family="Helvetica,sans-Serif" font-size="10.00">pagefind</text>
</g>
<!-- search.html -->
<g id="node5" class="node">
<title>search.html</title>
<g id="a_node5"><a xlink:href="search.html" xlink:title="Search page\l">
<polygon fill="white" stroke="#b3b3b3" points="260.2,-402 187.78,-402 187.78,-366 260.2,-366 260.2,-402"/>
<text text-anchor="start" x="195.64" y="-381" font-family="Helvetica,sans-Serif" font-size="10.00">Search page</text>
</a>
</g>
</g>
<!-- &#45;&gt;search.html -->
<g id="edge4" class="edge">
<title>&#45;&gt;search.html</title>
<path fill="none" stroke="#999999" d="M10.75,-489.79C20.37,-484.8 44.61,-472.26 65,-462 104.12,-442.31 148.9,-420.25 180.77,-404.63"/>
<polygon fill="#999999" stroke="#999999" points="187.78,-401.2 182.53,-407.53 184.41,-402.85 181.04,-404.5 181.04,-404.5 181.04,-404.5 184.41,-402.85 179.56,-401.46 187.78,-401.2 187.78,-401.2"/>
<text text-anchor="middle" x="90.84" y="-465" font-family="Helvetica,sans-Serif" font-size="10.00">search.html</text>
</g>
<!-- stories -->
<g id="node6" class="node">
<title>stories</title>
<g id="a_node6"><a xlink:href="stories">
<ellipse fill="white" stroke="#666666" cx="223.99" cy="-288" rx="5.5" ry="5.5"/>
</a>
</g>
</g>
<!-- &#45;&gt;stories -->
<g id="edge5" class="edge">
<title>&#45;&gt;stories</title>
<path fill="none" stroke="#999999" d="M8.98,-487.45C16.35,-474.2 39.16,-434.93 65,-408 113.62,-357.33 185,-311.26 212.06,-294.6"/>
<polygon fill="#999999" stroke="#999999" points="218.71,-290.55 214.06,-297.33 215.5,-292.5 212.3,-294.45 212.3,-294.45 212.3,-294.45 215.5,-292.5 210.55,-291.57 218.71,-290.55 218.71,-290.55"/>
<text text-anchor="middle" x="90.84" y="-411" font-family="Helvetica,sans-Serif" font-size="10.00">stories</text>
</g>
<!-- stories/Birds -->
<g id="node7" class="node">
<title>stories/Birds</title>
<g id="a_node7"><a xlink:href="stories/Birds" xlink:title="Bird myths\l">
<polygon fill="white" stroke="#b3b3b3" points="545.09,-576 481.62,-576 481.62,-540 545.09,-540 545.09,-576"/>
<text text-anchor="start" x="489.74" y="-555" font-family="Helvetica,sans-Serif" font-size="10.00">Bird myths</text>
</a>
</g>
</g>
<!-- stories&#45;&gt;stories/Birds -->
<g id="edge6" class="edge">
<title>stories&#45;&gt;stories/Birds</title>
<path fill="none" stroke="#999999" d="M229.16,-290.68C238.52,-296.83 261.62,-312.77 277.3,-330 306.67,-362.27 301.96,-379.69 331.3,-412 376.72,-462.02 440.11,-509.02 478.58,-535.59"/>
<polygon fill="#999999" stroke="#999999" points="485,-539.99 476.9,-538.53 481.9,-537.87 478.81,-535.74 478.81,-535.74 478.81,-535.74 481.9,-537.87 480.72,-532.96 485,-539.99 485,-539.99"/>
<text text-anchor="middle" x="362.98" y="-472" font-family="Helvetica,sans-Serif" font-size="10.00">Birds</text>
</g>
<!-- stories/Cosmos -->
<g id="node8" class="node">
<title>stories/Cosmos</title>
<g id="a_node8"><a xlink:href="stories/Cosmos" xlink:title="Cosmological myths\l">
<polygon fill="white" stroke="#b3b3b3" points="566.33,-468 460.38,-468 460.38,-432 566.33,-432 566.33,-468"/>
<text text-anchor="start" x="468.62" y="-447" font-family="Helvetica,sans-Serif" font-size="10.00">Cosmological myths</text>
</a>
</g>
</g>
<!-- stories&#45;&gt;stories/Cosmos -->
<g id="edge7" class="edge">
<title>stories&#45;&gt;stories/Cosmos</title>
<path fill="none" stroke="#999999" d="M229.04,-290.34C243.12,-298.5 291.3,-326.37 331.3,-349 379.96,-376.53 436.23,-407.84 472.95,-428.2"/>
<polygon fill="#999999" stroke="#999999" points="479.58,-431.87 471.38,-431.19 476.3,-430.05 473.02,-428.24 473.02,-428.24 473.02,-428.24 476.3,-430.05 474.66,-425.28 479.58,-431.87 479.58,-431.87"/>
<text text-anchor="middle" x="362.98" y="-385" font-family="Helvetica,sans-Serif" font-size="10.00">Cosmos</text>
</g>
<!-- stories/Fourfooted -->
<g id="node9" class="node">
<title>stories/Fourfooted</title>
<g id="a_node9"><a xlink:href="stories/Fourfooted" xlink:title="Four&#45;footed animal myths\l">
<polygon fill="white" stroke="#b3b3b3" points="578.23,-360 448.47,-360 448.47,-324 578.23,-324 578.23,-360"/>
<text text-anchor="start" x="456.66" y="-339" font-family="Helvetica,sans-Serif" font-size="10.00">Four&#45;footed animal myths</text>
</a>
</g>
</g>
<!-- stories&#45;&gt;stories/Fourfooted -->
<g id="edge8" class="edge">
<title>stories&#45;&gt;stories/Fourfooted</title>
<path fill="none" stroke="#999999" d="M229.51,-288.85C253.22,-293.3 365.17,-314.34 440.91,-328.57"/>
<polygon fill="#999999" stroke="#999999" points="448.58,-330.02 440.59,-331.95 444.9,-329.32 441.21,-328.63 441.21,-328.63 441.21,-328.63 444.9,-329.32 441.84,-325.31 448.58,-330.02 448.58,-330.02"/>
<text text-anchor="middle" x="362.98" y="-322" font-family="Helvetica,sans-Serif" font-size="10.00">Fourfooted</text>
</g>
<!-- stories/Miscellaneous -->
<g id="node10" class="node">
<title>stories/Miscellaneous</title>
<g id="a_node10"><a xlink:href="stories/Miscellaneous" xlink:title="Miscellaneous myths\l">
<polygon fill="white" stroke="#b3b3b3" points="567.67,-252 459.04,-252 459.04,-216 567.67,-216 567.67,-252"/>
<text text-anchor="start" x="466.95" y="-231" font-family="Helvetica,sans-Serif" font-size="10.00">Miscellaneous myths</text>
</a>
</g>
</g>
<!-- stories&#45;&gt;stories/Miscellaneous -->
<g id="edge9" class="edge">
<title>stories&#45;&gt;stories/Miscellaneous</title>
<path fill="none" stroke="#999999" d="M229.51,-287.15C254.32,-282.49 375.79,-259.66 451.25,-245.48"/>
<polygon fill="#999999" stroke="#999999" points="458.85,-244.05 452.11,-248.76 455.17,-244.75 451.48,-245.44 451.48,-245.44 451.48,-245.44 455.17,-244.75 450.86,-242.12 458.85,-244.05 458.85,-244.05"/>
<text text-anchor="middle" x="362.98" y="-270" font-family="Helvetica,sans-Serif" font-size="10.00">Miscellaneous</text>
</g>
<!-- stories/Snakes -->
<g id="node11" class="node">
<title>stories/Snakes</title>
<g id="a_node11"><a xlink:href="stories/Snakes" xlink:title="Snake myths\l">
<polygon fill="white" stroke="#b3b3b3" points="550.16,-144 476.55,-144 476.55,-108 550.16,-108 550.16,-144"/>
<text text-anchor="start" x="484.45" y="-123" font-family="Helvetica,sans-Serif" font-size="10.00">Snake myths</text>
</a>
</g>
</g>
<!-- stories&#45;&gt;stories/Snakes -->
<g id="edge10" class="edge">
<title>stories&#45;&gt;stories/Snakes</title>
<path fill="none" stroke="#999999" d="M229.03,-285.6C243.08,-277.26 291.17,-248.78 331.3,-226 379.66,-198.55 435.77,-167.71 472.55,-147.64"/>
<polygon fill="#999999" stroke="#999999" points="479.19,-144.02 474.22,-150.57 475.89,-145.81 472.6,-147.61 472.6,-147.61 472.6,-147.61 475.89,-145.81 470.99,-144.65 479.19,-144.02 479.19,-144.02"/>
<text text-anchor="middle" x="362.98" y="-229" font-family="Helvetica,sans-Serif" font-size="10.00">Snakes</text>
</g>
<!-- stories/Wonder -->
<g id="node12" class="node">
<title>stories/Wonder</title>
<g id="a_node12"><a xlink:href="stories/Wonder" xlink:title="Wonder tales\l">
<polygon fill="white" stroke="#b3b3b3" points="550.77,-36 475.94,-36 475.94,0 550.77,0 550.77,-36"/>
<text text-anchor="start" x="483.9" y="-15" font-family="Helvetica,sans-Serif" font-size="10.00">Wonder tales</text>
</a>
</g>
</g>
<!-- stories&#45;&gt;stories/Wonder -->
<g id="edge11" class="edge">
<title>stories&#45;&gt;stories/Wonder</title>
<path fill="none" stroke="#999999" d="M228.03,-283.83C240.09,-267.39 286.14,-205.87 331.3,-162 379.77,-114.91 442.74,-67.51 480.21,-40.55"/>
<polygon fill="#999999" stroke="#999999" points="486.45,-36.08 482.32,-43.2 483.4,-38.27 480.36,-40.45 480.36,-40.45 480.36,-40.45 483.4,-38.27 478.39,-37.71 486.45,-36.08 486.45,-36.08"/>
<text text-anchor="middle" x="362.98" y="-165" font-family="Helvetica,sans-Serif" font-size="10.00">Wonder</text>
</g>
</g>
</svg>
